<?xml version="1.0" encoding="UTF-8" standalone="no"?>
<svg
        viewBox="0 0 24 24"
        width="24px"
        height="24px"
        version="1.1"
        id="svg4"
        xmlns="http://www.w3.org/2000/svg"
>
    <path
            d="M 8.206,5.866 8.211,6.262 H 6.754 L 6.76,6.917 V 6.922 L 0.002,6.924 V 7.135 L 0,7.973 0.02,8.014 c 0.212,0.467 0.663,0.901 1.257,1.313 0.594,0.411 1.335,0.796 2.145,1.13 1.62,0.664 3.502,1.12 5.006,1.1 0.746,-0.01 1.265,0.228 1.62,0.672 0.341,0.426 0.51,1.092 0.524,1.92 l -2.632,2.09 0.008,1.896 h 3.995 v -1.622 c 0.641944,-0.519096 1.228552,-0.984644 2.173,-0.99 1.029765,0.01299 1.591436,0.564217 2.178,1.078 v 1.534 h 3.996 l -0.004,-1.76 -2.63,-2.22 c 0.055,-2.013 0.708,-3.443 1.777,-4.405 1.087,-0.979 2.61,-1.49 4.37,-1.616 L 23.998,8.119 24,5.872 Z"
            id="path2"
            style="fill:#000000;fill-opacity:1"/>
</svg>
