<?xml version="1.0" encoding="UTF-8" standalone="no"?>
<svg
   viewBox="0 0 476 512"
   height="24px"
   width="24px"
   version="1.1"
   id="svg4"
   sodipodi:docname="fabric_smooth_filled_24dp.svg"
   inkscape:version="1.1.1 (3bf5ae0d25, 2021-09-20)"
   xmlns:inkscape="http://www.inkscape.org/namespaces/inkscape"
   xmlns:sodipodi="http://sodipodi.sourceforge.net/DTD/sodipodi-0.dtd"
   xmlns="http://www.w3.org/2000/svg"
   xmlns:svg="http://www.w3.org/2000/svg">
  <defs
     id="defs8" />
  <sodipodi:namedview
     id="namedview6"
     pagecolor="#ffffff"
     bordercolor="#666666"
     borderopacity="1.0"
     inkscape:pageshadow="2"
     inkscape:pageopacity="0.0"
     inkscape:pagecheckerboard="0"
     showgrid="false"
     inkscape:zoom="27"
     inkscape:cx="11.981481"
     inkscape:cy="11.981481"
     inkscape:window-width="1920"
     inkscape:window-height="981"
     inkscape:window-x="0"
     inkscape:window-y="36"
     inkscape:window-maximized="1"
     inkscape:current-layer="svg4" />
  <path
     d="M 72,292.43951 H 36 v -36 h 36 z m 36.92957,-72.92962 H 72 v 36.92962 h 36.92957 z m 36.92962,-36.92957 h -36.92962 v 36.92957 h 36.92962 z m 36.92957,-36.92956 h -36.92957 v 36.92956 h 36.92957 z m 36,-36.25747 h -36 v 36.25747 h 36 z M 255.9234,36.565247 H 218.78876 V 109.39329 H 255.9234 Z M 293.19269,0 H 255.9234 v 36 h 37.26929 z m 0,72 h 36.04425 V 36.714294 h -36.04425 z m 36.04425,37.39329 H 365.7182 V 72.448914 h -36.48126 z m 36.48126,36.61461 h 37.14252 V 109.39329 H 365.7182 Z m 37.14252,35.64286 h 36.29953 V 146.0079 h -36.29953 z m 73.54291,0.44885 h -37.24338 v 73.79089 h 37.24338 z M 255.9234,109.39329 v 36.72225 h 36.63995 v -36.72225 z m 36.63995,36.72225 v 36.92957 h 36.67359 v -36.92957 z m 73.15485,72.92957 v -36 h -36.48126 v 36 z m -72.78741,146.66357 h 36.30615 v -36 H 292.93079 Z M 183.17981,475.81726 h -36.94287 v 35.8371 h 73.99335 v -35.8371 h 35.85342 V 439.11438 402.4115 h 36.84708 v -36.70282 h -36.84708 v 36.70282 h -36.81094 l -0.10816,36.70288 h -35.81738 v 36.70288 m -73.67011,0 h 36.55982 V 439.11438 H 109.67712 Z M 73.210083,402.4115 v 36.70288 H 109.67712 V 402.4115 Z M 36,365.70868 v 36.70282 h 37.210083 v -36.70282 z m 0,-73.26917 H 0 v 73.26911 H 36 Z M 402.86072,219.4187 H 365.7182 v 73.49487 h -36.48126 v 36 H 365.7182 V 293.0451 h 73.44205 v -37 h -36.29953 z"
     id="path2"
     style="display:none" />
  <path
     style="fill:#000000;fill-opacity:1;stroke:none;stroke-width:21.3333px;stroke-linecap:butt;stroke-linejoin:miter;stroke-opacity:1"
     d="M 238.76635,73.776138 421.18214,256.76335 c 22.25511,0.17315 37.0626,-24.3844 36.76172,-54.12232 L 275.44091,17.179229 c -26.32265,0.0099 -35.84216,29.300404 -36.67456,56.596909 z"
     id="path858"
     sodipodi:nodetypes="ccccc" />
  <path
     style="fill:#000000;fill-opacity:1;stroke:none;stroke-width:21.3333px;stroke-linecap:butt;stroke-linejoin:miter;stroke-opacity:1"
     d="M 221.42605,91.478317 403.21055,274.92463 184.26677,496.83917 0.46677244,312.93142 Z"
     id="path1710"
     sodipodi:nodetypes="ccccc" />
</svg>
